<?xml version="1.0" encoding="UTF-8" standalone="no"?> <svg xmlns:dc="http://purl.org/dc/elements/1.1/" xmlns:cc="http://creativecommons.org/ns#" xmlns:rdf="http://www.w3.org/1999/02/22-rdf-syntax-ns#" xmlns:svg="http://www.w3.org/2000/svg" xmlns="http://www.w3.org/2000/svg" xmlns:sodipodi="http://sodipodi.sourceforge.net/DTD/sodipodi-0.dtd" xmlns:inkscape="http://www.inkscape.org/namespaces/inkscape" version="1.1" id="svg859" width="164.70589" height="31.529411" viewBox="0 0 164.70589 31.529411" sodipodi:docname="Asset-4.svg" inkscape:version="1.0.2 (e86c870879, 2021-01-15, custom)"><metadata id="metadata865"></metadata><defs id="defs863"></defs><g inkscape:groupmode="layer" inkscape:label="Image" id="g867"><g id="g1432" transform="translate(-2.6953279,42.137719)" style="fill:#0000ff;fill-opacity:1"><path style="fill:#000000;fill-opacity:1;stroke-width:0.235294" d="m 113.63737,-10.555214 c -0.39876,-0.117102 -0.89595,-0.401789 -1.10486,-0.632638 -0.20892,-0.230847 -2.3517,-4.970682 -4.76175,-10.532967 -2.41005,-5.562284 -4.45604,-10.189366 -4.54665,-10.282404 -0.0906,-0.09304 -1.15931,3.506963 -2.3749,8 -1.215583,4.493038 -2.524715,9.309461 -2.90918,10.703159 l -0.599591,2.688679 -9.944768,0.0058 -2.320018,-4.095865 -2.242677,-3.8086 -7.22201,-0.07375 -7.222008,-0.07375 1.18217,-2.058823 1.182169,-2.058824 h 4.686899 c 2.577793,0 4.686897,-0.05008 4.686897,-0.111285 0,-0.06121 -1.523282,-2.667115 -3.385073,-5.790907 l -3.385073,-5.679623 -2.556104,4.317955 c -1.405856,2.374876 -4.528457,7.654313 -6.939111,11.732085 l -4.736558,7.690342 -20.880436,9.06e-4 V -26.06696 -41.363475 H 56.249414 74.25409 c 0,0 0.183521,0.02364 0.267649,0.05847 0.07826,0.0324 0.212004,0.136171 0.212004,0.136171 l 0.428893,0.378905 c 0.690275,0.609822 2.079645,2.520251 9.11297,14.211688 5.992219,9.960813 8.252735,13.533488 8.383584,13.249991 0.09854,-0.213489 1.813341,-6.363985 3.810678,-13.667772 2.075737,-7.590474 3.819572,-13.531478 4.070462,-13.867517 0.85129,-1.140217 2.77401,-1.235968 3.92214,-0.195323 0.36667,0.332341 2.29012,4.47404 5.34952,11.518923 2.62735,6.05 4.8319,10.999771 4.899,10.999491 0.0671,-2.82e-4 2.29211,-4.989515 4.94447,-11.087188 3.34309,-7.685646 4.99693,-11.223907 5.39117,-11.534015 1.19233,-0.937887 2.78112,-0.809965 3.6024,0.290048 3.13126,10.004692 5.37841,20.257741 8.50741,30.255928 l -5.29891,-9.97e-4 -2.8823,-10.786522 c -1.54617,-5.786285 -2.90794,-10.569104 -2.9798,-10.640964 -0.0719,-0.07186 -2.13105,4.472972 -4.57598,10.099627 -2.89151,6.654374 -4.65505,10.426847 -5.04531,10.792633 -0.71188,0.667228 -1.73613,0.890541 -2.73677,0.596685 z m -54.782428,-9.45532 c 1.257007,-2.102941 2.328428,-3.902941 2.380931,-4 0.0525,-0.09706 -3.934315,-0.176471 -8.8596,-0.176471 h -8.955064 v 4 4 h 6.57413 6.574129 z m 7.350783,-12.188528 c 1.186165,-1.947808 2.156662,-3.641926 2.156662,-3.764706 0,-0.137978 -4.762775,-0.223236 -12.470589,-0.223236 H 43.421209 v 3.764705 3.764706 h 10.313928 10.313927 z m -36.078634,21.225259 c -0.388236,-0.237654 -5.537909,-5.319611 -11.443719,-11.293237 -5.90581,-5.973628 -10.80287,-10.861141 -10.8823543,-10.861141 -0.079484,0 -0.1445169,5.029412 -0.1445169,11.17647 l 0.011049,11.331151 H 2.7263726 l -0.011048,-14.242915 c -0.00601,-7.748527 0.065875,-14.417613 0.14639,-14.820185 0.3203056,-1.601528 2.2054239,-2.582484 3.6265735,-1.887154 0.3653223,0.178743 5.6370779,5.222045 11.7150089,11.207339 6.077932,5.985294 11.11486,10.882353 11.193173,10.882353 0.07831,0 0.142386,-4.976471 0.142386,-11.058824 v -11.058823 h 2.470589 2.470587 v 14.360498 c 0,15.430958 -0.0032,15.473541 -1.203969,16.314633 -0.728282,0.510108 -2.273922,0.485487 -3.148972,-0.05016 z m 110.097309,-2.448496 -0.75754,-2.426088 10.13155,-0.117647 c 9.59983,-0.111473 10.17254,-0.142343 10.91252,-0.588235 2.63546,-1.588076 2.4243,-5.998265 -0.38383,-7.242893 -0.3813,-0.169002 -3.85777,-0.304125 -9.88235,-0.384105 0,0 -6.25382,-0.06418 -9.29412,-0.23387 -0.56738,-0.03167 -1.54056,-0.619547 -1.54056,-0.619547 -1.1674,-0.553202 -3.13487,-1.970207 -4.04284,-3.814562 -0.72275,-1.468096 -0.76928,-1.713704 -0.76518,-4.038693 0.004,-2.224008 0.0709,-2.611863 0.65884,-3.817268 0.8149,-1.670595 2.56166,-3.276805 4.34818,-3.998297 1.31932,-0.532813 1.49134,-0.5418 10.37613,-0.54206 l 9.03456,-2.64e-4 0.51369,1.882353 c 0.28253,1.035294 0.58664,2.17353 0.6758,2.529412 l 0.16211,0.647059 h -8.60028 c -7.23027,0 -8.73911,0.05801 -9.47186,0.364171 -1.24445,0.519963 -1.84318,1.166842 -2.17416,2.348989 -0.51381,1.835146 0.21361,3.710528 1.7157,4.423318 0.72101,0.34214 1.84238,0.393872 8.67484,0.400198 4.31574,0.004 8.62906,0.108811 9.58517,0.232923 4.21975,0.547763 6.53181,2.769125 7.1388,6.858765 0.61294,4.129786 -0.96912,7.602141 -3.88485,9.630228 -1.75283,1.219216 -3.64833,1.277301 -13.30751,1.28167 l -9.06526,0.0041 z" id="path1434" sodipodi:nodetypes="ssssssccccccccssscssccccccscsssssssssscccscssssssscccccsssscccccsssssccscsssscccscssccsssssssccsscsscssssssssscc"></path></g></g></svg> 